<svg id="圖層_1" data-name="圖層 1" xmlns="http://www.w3.org/2000/svg" viewBox="0 0 500 130"><defs><style>.cls-1{fill:#c29a1e;}.cls-2{fill:none;}</style></defs><title>cover</title><path class="cls-1" d="M133.28,84.37a6.85,6.85,0,0,1-4.9-2L103.6,57.49a7,7,0,0,1,0-9.83,6.87,6.87,0,0,1,4.91-2h0a6.87,6.87,0,0,1,4.9,2l24.78,24.85a7,7,0,0,1,0,9.83A6.89,6.89,0,0,1,133.28,84.37Zm-3.14-3.78a4.45,4.45,0,0,0,6.29,0,4.48,4.48,0,0,0,0-6.32L111.65,49.41a4.38,4.38,0,0,0-3.14-1.3h0a4.41,4.41,0,0,0-3.15,1.3,4.48,4.48,0,0,0,0,6.32Z"/><path class="cls-1" d="M108.51,84.37a6.89,6.89,0,0,1-4.91-2,7,7,0,0,1,0-9.83l24.78-24.85a6.94,6.94,0,0,1,9.81,0,7,7,0,0,1,0,9.83L113.41,82.34A6.87,6.87,0,0,1,108.51,84.37Zm-3.15-10.1a4.48,4.48,0,0,0,0,6.32,4.45,4.45,0,0,0,6.29,0l24.78-24.86a4.48,4.48,0,0,0,0-6.32,4.45,4.45,0,0,0-6.29,0Z"/><path class="cls-1" d="M36.07,84.37a6.85,6.85,0,0,1-4.9-2L6.39,57.49a7,7,0,0,1,0-9.83,6.94,6.94,0,0,1,9.81,0L41,72.51a7,7,0,0,1,0,9.83A6.89,6.89,0,0,1,36.07,84.37Zm-3.14-3.78a4.45,4.45,0,0,0,6.29,0,4.48,4.48,0,0,0,0-6.32L14.44,49.41a4.45,4.45,0,0,0-6.29,0,4.48,4.48,0,0,0,0,6.32Z"/><path class="cls-1" d="M11.3,84.37a6.89,6.89,0,0,1-4.91-2,7,7,0,0,1,0-9.83L31.17,47.66a6.85,6.85,0,0,1,4.9-2h0a6.89,6.89,0,0,1,4.91,2,7,7,0,0,1,0,9.83L16.2,82.34A6.87,6.87,0,0,1,11.3,84.37ZM36.07,48.11a4.38,4.38,0,0,0-3.14,1.3L8.15,74.27a4.48,4.48,0,0,0,0,6.32,4.45,4.45,0,0,0,6.29,0L39.22,55.73a4.48,4.48,0,0,0,0-6.32,4.41,4.41,0,0,0-3.15-1.3Z"/><path class="cls-1" d="M169.57,79.94l-17.44-17.5a7,7,0,0,1,0-9.83,6.94,6.94,0,0,1,9.81,0L179.38,70.1ZM157,53.06a4.38,4.38,0,0,0-3.14,1.3,4.49,4.49,0,0,0,0,6.33l15.68,15.73,6.3-6.32L160.18,54.36A4.41,4.41,0,0,0,157,53.06Z"/><path class="cls-1" d="M169.43,79.94l-9.81-9.84,17.44-17.49a6.94,6.94,0,0,1,9.81,0,7,7,0,0,1,0,9.83Zm-6.3-9.84,6.3,6.32,15.68-15.73a4.49,4.49,0,0,0,0-6.33,4.45,4.45,0,0,0-6.29,0Z"/><path class="cls-1" d="M72.36,79.94,54.92,62.44a7,7,0,0,1,0-9.83,6.94,6.94,0,0,1,9.81,0L82.17,70.1ZM59.82,53.06a4.38,4.38,0,0,0-3.14,1.3,4.49,4.49,0,0,0,0,6.33L72.36,76.42l6.3-6.32L63,54.36A4.41,4.41,0,0,0,59.82,53.06Z"/><path class="cls-1" d="M72.22,79.94,62.41,70.1,79.85,52.61a6.94,6.94,0,0,1,9.81,0,7,7,0,0,1,0,9.83Zm-6.3-9.84,6.3,6.32L87.9,60.69a4.49,4.49,0,0,0,0-6.33,4.45,4.45,0,0,0-6.29,0Z"/><path class="cls-1" d="M181.89,39a6.89,6.89,0,0,1-4.91-2L152.2,12.08a7,7,0,0,1,0-9.83,7,7,0,0,1,9.82,0h0L186.79,27.1a7,7,0,0,1,0,9.84A6.85,6.85,0,0,1,181.89,39ZM157.11,2.7A4.43,4.43,0,0,0,154,4a4.5,4.5,0,0,0,0,6.32l24.78,24.85a4.45,4.45,0,0,0,6.29,0,4.48,4.48,0,0,0,0-6.32L160.26,4A4.43,4.43,0,0,0,157.11,2.7Z"/><path class="cls-1" d="M157.11,39h0a6.89,6.89,0,0,1-4.91-2,7,7,0,0,1,0-9.84L177,2.25a6.94,6.94,0,0,1,9.81,0,7,7,0,0,1,0,9.83h0L162,36.94A6.89,6.89,0,0,1,157.11,39ZM181.89,2.7A4.42,4.42,0,0,0,178.74,4L154,28.86a4.5,4.5,0,0,0,0,6.32,4.42,4.42,0,0,0,3.15,1.3h0a4.42,4.42,0,0,0,3.15-1.3L185,10.33A4.48,4.48,0,0,0,185,4,4.39,4.39,0,0,0,181.89,2.7Z"/><path class="cls-1" d="M120.89,39a5.69,5.69,0,0,1-5.67-5.69v-8h-8a5.69,5.69,0,0,1,0-11.38h8v-8a5.68,5.68,0,1,1,11.35,0v8h8a5.69,5.69,0,0,1,0,11.38h-8v8A5.7,5.7,0,0,1,120.89,39ZM107.25,16.39a3.21,3.21,0,0,0,0,6.41H117.7V33.28a3.19,3.19,0,1,0,6.38,0V22.8h10.46a3.21,3.21,0,0,0,0-6.41H124.08V5.91a3.19,3.19,0,1,0-6.38,0V16.39Z"/><path class="cls-1" d="M84.68,39a6.89,6.89,0,0,1-4.91-2L55,12.08a7,7,0,0,1,0-9.83,7,7,0,0,1,9.82,0h0L89.58,27.1a7,7,0,0,1,0,9.84A6.85,6.85,0,0,1,84.68,39ZM59.9,2.7A4.43,4.43,0,0,0,56.75,4a4.5,4.5,0,0,0,0,6.32L81.53,35.18a4.45,4.45,0,0,0,6.29,0,4.48,4.48,0,0,0,0-6.32L63.05,4A4.43,4.43,0,0,0,59.9,2.7Z"/><path class="cls-1" d="M59.9,39h0a6.89,6.89,0,0,1-4.91-2,7,7,0,0,1,0-9.84L79.77,2.25a6.94,6.94,0,0,1,9.81,0,7,7,0,0,1,0,9.83h0L64.81,36.94A6.89,6.89,0,0,1,59.9,39ZM84.68,2.7A4.42,4.42,0,0,0,81.53,4L56.75,28.86a4.5,4.5,0,0,0,0,6.32,4.42,4.42,0,0,0,3.15,1.3h0a4.42,4.42,0,0,0,3.15-1.3L87.82,10.33a4.48,4.48,0,0,0,0-6.32A4.39,4.39,0,0,0,84.68,2.7Z"/><path class="cls-1" d="M23.68,39A5.69,5.69,0,0,1,18,33.28v-8H10A5.69,5.69,0,0,1,10,13.9h8v-8a5.68,5.68,0,1,1,11.35,0v8h8a5.69,5.69,0,0,1,0,11.38h-8v8A5.7,5.7,0,0,1,23.68,39ZM10,16.39a3.21,3.21,0,0,0,0,6.41H20.49V33.28a3.2,3.2,0,1,0,6.39,0V22.8H37.33a3.21,3.21,0,0,0,0-6.41H26.88V5.91a3.2,3.2,0,1,0-6.39,0V16.39Z"/><path class="cls-1" d="M181.89,129.78a6.89,6.89,0,0,1-4.91-2L152.2,102.9a7,7,0,0,1,0-9.84,7,7,0,0,1,9.82,0h0l24.77,24.86a7,7,0,0,1,0,9.83A6.85,6.85,0,0,1,181.89,129.78ZM157.11,93.52a4.42,4.42,0,0,0-3.15,1.3,4.5,4.5,0,0,0,0,6.32L178.74,126a4.43,4.43,0,0,0,6.29,0,4.48,4.48,0,0,0,0-6.32L160.26,94.82h0A4.42,4.42,0,0,0,157.11,93.52Z"/><path class="cls-1" d="M157.11,129.78h0a6.89,6.89,0,0,1-4.91-2,7,7,0,0,1,0-9.83L177,93.06a6.94,6.94,0,0,1,9.81,0,7,7,0,0,1,0,9.84h0L162,127.75A6.89,6.89,0,0,1,157.11,129.78Zm24.78-36.26a4.41,4.41,0,0,0-3.15,1.3L154,119.67a4.5,4.5,0,0,0,0,6.32,4.43,4.43,0,0,0,3.15,1.31h0a4.43,4.43,0,0,0,3.15-1.31L185,101.14a4.48,4.48,0,0,0,0-6.32A4.38,4.38,0,0,0,181.89,93.52Z"/><path class="cls-1" d="M120.89,129.78a5.68,5.68,0,0,1-5.67-5.69v-8h-8a5.69,5.69,0,0,1,0-11.38h8v-8a5.68,5.68,0,1,1,11.35,0v8h8a5.69,5.69,0,0,1,0,11.38h-8v8A5.69,5.69,0,0,1,120.89,129.78ZM107.25,107.2a3.21,3.21,0,0,0,0,6.41H117.7v10.48a3.19,3.19,0,1,0,6.38,0V113.61h10.46a3.21,3.21,0,0,0,0-6.41H124.08V96.72a3.19,3.19,0,1,0-6.38,0V107.2Z"/><path class="cls-1" d="M84.68,129.78a6.89,6.89,0,0,1-4.91-2L55,102.9a7,7,0,0,1,0-9.84,7,7,0,0,1,9.82,0h0l24.77,24.86a7,7,0,0,1,0,9.83A6.85,6.85,0,0,1,84.68,129.78ZM59.9,93.52a4.42,4.42,0,0,0-3.15,1.3,4.5,4.5,0,0,0,0,6.32L81.53,126a4.43,4.43,0,0,0,6.29,0,4.48,4.48,0,0,0,0-6.32L63.05,94.82h0A4.42,4.42,0,0,0,59.9,93.52Z"/><path class="cls-1" d="M59.9,129.78h0a6.89,6.89,0,0,1-4.91-2,7,7,0,0,1,0-9.83L79.77,93.06a6.94,6.94,0,0,1,9.81,0,7,7,0,0,1,0,9.84h0L64.81,127.75A6.89,6.89,0,0,1,59.9,129.78ZM84.68,93.52a4.41,4.41,0,0,0-3.15,1.3L56.75,119.67a4.5,4.5,0,0,0,0,6.32,4.43,4.43,0,0,0,3.15,1.31h0A4.43,4.43,0,0,0,63.05,126l24.77-24.85a4.48,4.48,0,0,0,0-6.32A4.38,4.38,0,0,0,84.68,93.52Z"/><path class="cls-1" d="M23.68,129.78A5.68,5.68,0,0,1,18,124.09v-8H10a5.69,5.69,0,0,1,0-11.38h8v-8a5.68,5.68,0,1,1,11.35,0v8h8a5.69,5.69,0,0,1,0,11.38h-8v8A5.69,5.69,0,0,1,23.68,129.78ZM10,107.2a3.21,3.21,0,0,0,0,6.41H20.49v10.48a3.2,3.2,0,1,0,6.39,0V113.61H37.33a3.21,3.21,0,0,0,0-6.41H26.88V96.72a3.2,3.2,0,1,0-6.39,0V107.2Z"/><path class="cls-2" d="M257.55,57a9.07,9.07,0,0,1-6.46-2.68l-.16-.16,0,0a9.15,9.15,0,0,1-2.5-6.3V20.1h-5.68a9,9,0,0,1-9-9,9.07,9.07,0,0,1,2.53-6.3,8.8,8.8,0,0,1,6.43-2.75h29.64a9.06,9.06,0,0,1,9,9,8.89,8.89,0,0,1-2.74,6.45,9,9,0,0,1-6.28,2.54h-5.62V47.83A9.05,9.05,0,0,1,264,54.39,9.19,9.19,0,0,1,257.55,57Z"/><path class="cls-1" d="M272.37,6.07H242.73a4.82,4.82,0,0,0-3.55,1.52,5,5,0,0,0-1.41,3.52,4.93,4.93,0,0,0,5,5h9.68V47.83a5,5,0,0,0,1.51,3.64h0A5,5,0,0,0,257.55,53a5.13,5.13,0,0,0,3.63-1.48,5,5,0,0,0,1.57-3.67V16.08h9.62a5,5,0,0,0,3.51-1.42,4.81,4.81,0,0,0,1.51-3.55,4.94,4.94,0,0,0-1.48-3.56A4.89,4.89,0,0,0,272.37,6.07Z"/><path class="cls-2" d="M310.63,57.29a28,28,0,0,1-14.2-3.6,25.51,25.51,0,0,1-9.69-10.15,30.87,30.87,0,0,1-3.46-14v-.26a31,31,0,0,1,3.42-14,25,25,0,0,1,9.79-10.2,29.69,29.69,0,0,1,28.34,0,25.53,25.53,0,0,1,9.7,10.2,31,31,0,0,1,3.45,14v.26a30.79,30.79,0,0,1-3.42,13.92,25.34,25.34,0,0,1-9.8,10.25A27.71,27.71,0,0,1,310.63,57.29Zm0-37.79a8.91,8.91,0,0,0-4.8,1.16l-.06,0a7.66,7.66,0,0,0-3,3.22,11.89,11.89,0,0,0-1.17,5.46,12.25,12.25,0,0,0,1.16,5.48,7.42,7.42,0,0,0,2.92,3.23,9.64,9.64,0,0,0,4.93,1.16,8.85,8.85,0,0,0,4.79-1.15l.08-.05a7.61,7.61,0,0,0,3-3.21,11.89,11.89,0,0,0,1.17-5.46,12.16,12.16,0,0,0-1.17-5.49,7.49,7.49,0,0,0-3-3.2A9.23,9.23,0,0,0,310.63,19.5Z"/><path class="cls-1" d="M331,17.14a21.57,21.57,0,0,0-8.15-8.6,25.77,25.77,0,0,0-24.36,0,21,21,0,0,0-8.24,8.6,26.8,26.8,0,0,0-3,12.19v.09a26.76,26.76,0,0,0,3,12.23,21.52,21.52,0,0,0,8.13,8.55h0a24.07,24.07,0,0,0,12.21,3.07,23.76,23.76,0,0,0,12.12-3.07A21.37,21.37,0,0,0,331,41.55a26.8,26.8,0,0,0,3-12.13v-.09A26.94,26.94,0,0,0,331,17.14ZM317.56,41.49a12.74,12.74,0,0,1-6.93,1.78,13.41,13.41,0,0,1-7-1.73,11.25,11.25,0,0,1-4.46-4.88,16.14,16.14,0,0,1-1.6-7.28,15.85,15.85,0,0,1,1.62-7.29,11.7,11.7,0,0,1,4.47-4.83,12.74,12.74,0,0,1,6.93-1.77,13.17,13.17,0,0,1,6.93,1.75,11.57,11.57,0,0,1,4.49,4.85,16.21,16.21,0,0,1,1.59,7.29A15.9,15.9,0,0,1,322,36.67a11.61,11.61,0,0,1-4.43,4.8Z"/><path class="cls-2" d="M353.47,42.37a8.86,8.86,0,0,1-8.84-8.87,9,9,0,0,1,2.47-6.24,8.72,8.72,0,0,1,6.37-2.69h11.25a8.9,8.9,0,1,1,0,17.8Z"/><path class="cls-1" d="M364.72,28.58H353.47A4.72,4.72,0,0,0,350,30a4.91,4.91,0,0,0-1.35,3.46,4.85,4.85,0,0,0,4.84,4.85h11.25A4.92,4.92,0,0,0,368.17,37a4.75,4.75,0,0,0,1.45-3.5,5,5,0,0,0-4.9-4.92Z"/><path class="cls-2" d="M391.91,56.7a9.07,9.07,0,0,1-6.23-2.47l0,0-.2-.2a9.12,9.12,0,0,1-2.68-6.48V11.29a9.2,9.2,0,0,1,2.6-6.43,9,9,0,0,1,6.54-2.8h12A28.21,28.21,0,0,1,418.81,6l.1.06a26.59,26.59,0,0,1,9.28,10.21,28.85,28.85,0,0,1,.08,26.06,24.94,24.94,0,0,1-9.66,10.53,27.93,27.93,0,0,1-14.74,3.86Zm11.31-18a11.31,11.31,0,0,0,5.49-1.24,7.55,7.55,0,0,0,3.19-3,10.09,10.09,0,0,0,1.16-5,10.23,10.23,0,0,0-1.19-5.08,7.32,7.32,0,0,0-3.11-3,11.86,11.86,0,0,0-5.54-1.2h-2.11V38.66Z"/><path class="cls-1" d="M416.73,9.41a24.32,24.32,0,0,0-12.86-3.34h-12a5,5,0,0,0-3.66,1.58,5.14,5.14,0,0,0-1.48,3.64V47.53a5,5,0,0,0,1.51,3.64h0a5,5,0,0,0,3.63,1.51h12a24.07,24.07,0,0,0,12.67-3.27,21.06,21.06,0,0,0,8.16-8.91,24.81,24.81,0,0,0-.07-22.41A22.59,22.59,0,0,0,416.73,9.41Zm.34,20a14,14,0,0,1-1.69,7,11.39,11.39,0,0,1-4.72,4.55l0,0a15.2,15.2,0,0,1-7.41,1.73h-6.11V16.08h6.11a15.67,15.67,0,0,1,7.39,1.67,11.2,11.2,0,0,1,4.74,4.58A14.11,14.11,0,0,1,417.07,29.38Z"/><path class="cls-2" d="M464.51,57.29a28,28,0,0,1-14.2-3.6,25.51,25.51,0,0,1-9.69-10.15,30.87,30.87,0,0,1-3.46-14v-.26a31,31,0,0,1,3.42-14,25,25,0,0,1,9.79-10.2,29.69,29.69,0,0,1,28.34,0,25.53,25.53,0,0,1,9.7,10.2,31,31,0,0,1,3.45,14v.26a30.79,30.79,0,0,1-3.42,13.92,25.34,25.34,0,0,1-9.8,10.25A27.71,27.71,0,0,1,464.51,57.29Zm0-37.79a8.91,8.91,0,0,0-4.8,1.16l-.06,0a7.66,7.66,0,0,0-3,3.22,11.89,11.89,0,0,0-1.17,5.46,12.12,12.12,0,0,0,1.17,5.48,7.34,7.34,0,0,0,2.91,3.23,9.64,9.64,0,0,0,4.93,1.16,8.85,8.85,0,0,0,4.79-1.15l.08-.05a7.61,7.61,0,0,0,3-3.21,11.89,11.89,0,0,0,1.17-5.46,12.16,12.16,0,0,0-1.17-5.49,7.49,7.49,0,0,0-3-3.2A9.23,9.23,0,0,0,464.51,19.5Z"/><path class="cls-1" d="M487.86,29.33a26.94,26.94,0,0,0-3-12.19,21.57,21.57,0,0,0-8.15-8.6,25.77,25.77,0,0,0-24.36,0,21.07,21.07,0,0,0-8.24,8.6,26.8,26.8,0,0,0-3,12.19v.09a26.76,26.76,0,0,0,3,12.23,21.52,21.52,0,0,0,8.13,8.55h0a24.07,24.07,0,0,0,12.21,3.07,23.73,23.73,0,0,0,12.12-3.07,21.37,21.37,0,0,0,8.27-8.66,26.8,26.8,0,0,0,3-12.13v-.09ZM471.44,41.49a12.74,12.74,0,0,1-6.93,1.78,13.41,13.41,0,0,1-7-1.73,11.25,11.25,0,0,1-4.46-4.88,16.13,16.13,0,0,1-1.59-7.28,15.85,15.85,0,0,1,1.61-7.29,11.7,11.7,0,0,1,4.47-4.83,12.74,12.74,0,0,1,6.93-1.77,13.17,13.17,0,0,1,6.93,1.75,11.57,11.57,0,0,1,4.49,4.85,16.21,16.21,0,0,1,1.6,7.29,15.91,15.91,0,0,1-1.62,7.29,11.61,11.61,0,0,1-4.43,4.8Z"/><path class="cls-2" d="M339.67,127.94a10.29,10.29,0,0,1-10.21-10.24V82.23a9.24,9.24,0,0,1,2.6-6.42A9,9,0,0,1,338.6,73a9.25,9.25,0,0,1,9.2,9.22v27.32h13a9.2,9.2,0,1,1,0,18.39Z"/><path class="cls-1" d="M360.8,113.56h-17V82.23A5.26,5.26,0,0,0,338.6,77a5,5,0,0,0-3.66,1.57,5.2,5.2,0,0,0-1.47,3.64V117.7a6.27,6.27,0,0,0,6.2,6.23H360.8a5.15,5.15,0,0,0,3.64-1.48,5.21,5.21,0,0,0-3.64-8.89Z"/><path class="cls-2" d="M385.08,128.24a9.15,9.15,0,0,1-9.14-9.17V82.23a9.23,9.23,0,0,1,2.59-6.42,9,9,0,0,1,6.55-2.8,9.25,9.25,0,0,1,9.19,9.22v36.84a9.08,9.08,0,0,1-2.78,6.56A9.18,9.18,0,0,1,385.08,128.24Z"/><path class="cls-1" d="M385.08,77a5,5,0,0,0-3.67,1.57,5.2,5.2,0,0,0-1.47,3.64v36.84a5.16,5.16,0,0,0,5.14,5.16,5.16,5.16,0,0,0,3.63-1.49,5,5,0,0,0,1.56-3.67V82.23A5.24,5.24,0,0,0,385.08,77Z"/><path class="cls-2" d="M424.64,128.54A41.71,41.71,0,0,1,408,125.15a9.07,9.07,0,0,1-3.92-3.21,9,9,0,0,1-1.68-5.2,9,9,0,0,1,2.49-6.26,8.8,8.8,0,0,1,6.41-2.73,9,9,0,0,1,3.8.82,22.4,22.4,0,0,0,9.06,1.87h.81l-2.25-.61a67,67,0,0,1-8.53-2.69,17.88,17.88,0,0,1-8.25-6,15.88,15.88,0,0,1-3.12-9.72,17.83,17.83,0,0,1,11.1-16.65,27.21,27.21,0,0,1,10.77-2.07,40.33,40.33,0,0,1,14.07,2.37,8.9,8.9,0,0,1,5.91,8.47,9,9,0,0,1-2.33,6,8.64,8.64,0,0,1-6.52,3,8.43,8.43,0,0,1-3.22-.66,22.9,22.9,0,0,0-7.31-1.19,14.71,14.71,0,0,0-2.34.17c.84.26,2.06.59,3.82,1a61.17,61.17,0,0,1,8.57,2.57,17.59,17.59,0,0,1,7.78,5.73,16.41,16.41,0,0,1,3.27,10.26,16.68,16.68,0,0,1-3,9.7,18.9,18.9,0,0,1-8.23,6.47A26.8,26.8,0,0,1,424.64,128.54ZM420.8,91.63"/><path class="cls-1" d="M433.83,98.16a57.07,57.07,0,0,0-8-2.39,41.66,41.66,0,0,1-5.54-1.57,7.47,7.47,0,0,1-2.5-1.53l-.08-.07a1.9,1.9,0,0,1-.6-1.59,3.16,3.16,0,0,1,1.74-2.91,12.15,12.15,0,0,1,6.39-1.43A26.8,26.8,0,0,1,434,88.12a4.57,4.57,0,0,0,5.35-1.21,5.06,5.06,0,0,0,1.32-3.36,4.84,4.84,0,0,0-3.3-4.71,36.23,36.23,0,0,0-12.68-2.12,23.13,23.13,0,0,0-9.19,1.75,13.78,13.78,0,0,0-8.68,13,12,12,0,0,0,2.32,7.32,14.08,14.08,0,0,0,6.5,4.64,64.43,64.43,0,0,0,8.09,2.55c2.65.69,4.56,1.25,5.67,1.66a6,6,0,0,1,2.15,1.28l.09.07a1.31,1.31,0,0,1,.47,1.11c0,1.31,0,4.39-7.95,4.39a26.36,26.36,0,0,1-10.72-2.22,4.86,4.86,0,0,0-2.14-.46,4.75,4.75,0,0,0-3.52,1.49,5,5,0,0,0-1.38,3.48,4.87,4.87,0,0,0,.95,2.88,5.19,5.19,0,0,0,2.24,1.85,37.7,37.7,0,0,0,15.1,3,22.78,22.78,0,0,0,8.88-1.65,14.86,14.86,0,0,0,6.49-5.05,12.77,12.77,0,0,0,2.33-7.41,12.43,12.43,0,0,0-2.44-7.8A13.57,13.57,0,0,0,433.83,98.16Z"/><path class="cls-2" d="M470.52,128.24a9.07,9.07,0,0,1-6.46-2.68l-.15-.16,0,0a9.15,9.15,0,0,1-2.5-6.3V91.34H455.7a8.95,8.95,0,0,1-9-9,9.08,9.08,0,0,1,2.53-6.3,8.84,8.84,0,0,1,6.43-2.75h29.64a9.06,9.06,0,0,1,9,9,8.86,8.86,0,0,1-2.74,6.45,9,9,0,0,1-6.28,2.54h-5.62v27.73a9.05,9.05,0,0,1-2.79,6.56A9.16,9.16,0,0,1,470.52,128.24Z"/><path class="cls-1" d="M488.88,78.8a4.89,4.89,0,0,0-3.54-1.48H455.7a4.83,4.83,0,0,0-3.55,1.51,5,5,0,0,0-1.41,3.52,5,5,0,0,0,5,5h9.68v31.74a5,5,0,0,0,1.51,3.64h0a5.07,5.07,0,0,0,3.63,1.51,5.17,5.17,0,0,0,3.63-1.48,5,5,0,0,0,1.57-3.68V87.33h9.62a5,5,0,0,0,3.51-1.42,4.82,4.82,0,0,0,1.51-3.56A4.93,4.93,0,0,0,488.88,78.8Z"/></svg>